<svg xmlns:xlink="http://www.w3.org/1999/xlink" xmlns="http://www.w3.org/2000/svg" width="38" height="44" viewBox="0 0 38 44" fill="none">
    <path d="M31.6228 23.1749C31.6029 19.5817 33.2593 16.8696 36.612 14.8723C34.7361 12.2385 31.9022 10.7895 28.1603 10.5056C24.618 10.2314 20.7463 12.5323 19.3294 12.5323C17.8326 12.5323 14.4 10.6035 11.7059 10.6035C6.13791 10.6916 0.220703 14.9604 0.220703 23.6449C0.220703 26.2101 0.699668 28.8601 1.6576 31.595C2.93484 35.1883 7.54487 44 12.3545 43.8531C14.869 43.7944 16.6452 42.1006 19.9181 42.1006C23.0913 42.1006 24.7377 43.8531 27.5416 43.8531C32.3912 43.7846 36.5621 35.7757 37.7795 32.1727C31.2736 29.1669 31.6228 23.3609 31.6228 23.1749ZM25.975 7.09835C28.6991 3.92612 28.4497 1.03783 28.3698 0C25.965 0.137072 23.1811 1.6057 21.5945 3.417C19.8483 5.35559 18.8205 7.75434 19.04 10.4566C21.6444 10.6524 24.0193 9.34046 25.975 7.09835Z" fill="white"/>
</svg>