<svg id="esc06K4b2jp1" xmlns="http://www.w3.org/2000/svg" xmlns:xlink="http://www.w3.org/1999/xlink" viewBox="0 0 100 100" shape-rendering="geometricPrecision" text-rendering="geometricPrecision"><g transform="matrix(3.890317 0 0 4.109656-149.283138-169.729867)" clip-path="url(#esc06K4b2jp30)"><g><g mask="url(#esc06K4b2jp19)"><g><g clip-path="url(#esc06K4b2jp17)"><g transform="matrix(.15337 0 0 0.15337 1.53506 20.8661)"><g transform="matrix(6.52 0 0 6.52 298.33 93.983)"><g transform="translate(1.628 3.527)"><path d="M-0.26,3.202c.072.049.156.075.243.075c0,0,.001,0,.001,0c.24,0,.435-.195.435-.435c0-.041-.006-.081-.017-.12-.2-.881-.107-1.589.279-2.102.483-.644.697-1.471.572-2.212-.111-.661-.466-1.209-1.025-1.587-.146-.098-.346-.097-.491.002-.148.102-.217.281-.176.457.217.928.018,1.519-.482,2.418-.324.584-.457,1.241-.373,1.85.096.692.454,1.265,1.034,1.654Z" fill="#f3b064"/></g></g><g transform="matrix(6.52 0 0 6.52 323.846 102.199)"><g transform="translate(1.354 2.751)"><path d="M-0.242,2.43c.068.047.148.071.23.071.226,0,.408-.183.408-.409c0-.037-.004-.074-.014-.11-.141-.62-.077-1.115.19-1.47.369-.492.532-1.126.436-1.694-.086-.51-.36-.934-.793-1.226-.136-.092-.319-.093-.46.003-.138.095-.205.269-.166.429.154.658.019,1.06-.344,1.713-.248.447-.349.95-.285,1.416.074.535.351.977.798,1.277Z" fill="#f3b064"/></g></g><g transform="matrix(6.52 0 0 6.52 276.339 102.198)"><g transform="translate(1.354 2.751)"><path d="M-0.242,2.43c.068.047.148.071.23.071c0,0,.001,0,.001,0c.225,0,.409-.183.409-.409c0-.037-.005-.074-.016-.11-.14-.62-.076-1.114.19-1.47.37-.492.532-1.125.436-1.694-.085-.51-.358-.934-.791-1.226-.136-.092-.32-.093-.461.003-.138.096-.205.269-.166.43.154.657.018,1.06-.345,1.713-.249.446-.35.949-.285,1.415.074.535.351.977.798,1.277Z" fill="#f3b064"/></g></g></g><clipPath id="esc06K4b2jp17"><path d="M0,0h524v524h-524Z"/></clipPath></g></g><mask id="esc06K4b2jp19" mask-type="alpha"><g transform="matrix(.15337 0 0 0.15337 41.718 61.049)"><g><path d="" fill-opacity="0" stroke="#ed0505" stroke-width="14" stroke-linecap="round"/></g><g transform="translate(24 0)"><path d="" fill-opacity="0" stroke="#ed0505" stroke-width="14" stroke-linecap="round"/></g><g transform="translate(47.5 0)"><path d="" fill-opacity="0" stroke="#ed0505" stroke-width="14" stroke-linecap="round"/></g></g></mask></g><g transform="translate(38.123 44.953)"><g transform="translate(13.126 8.039)"><path d="M9.064,-7.382c-.478,0-1.156.098-1.805.535-.038-.079-.076-.158-.116-.237-.006-.012-.012-.025-.018-.038-.104-.216-.32-.666-1.254-.666c0,0-16.465,0-16.465,0-.351,0-.834.128-1.142.742-.757,1.511-1.14,3.136-1.14,4.828c0,4.053,2.279,7.774,5.949,9.711.057.031.574.295,1.113.295c0,0,7.069,0,7.069,0c.492,0,.905-.192,1.02-.252c1.645-.852,3.014-2.059,4.03-3.494.15.033.316.054.502.054c1.142,0,2.635-.718,3.804-1.826c1.461-1.387,2.265-3.231,2.265-5.195c0-2.458-1.71-4.457-3.812-4.457ZM7.6,1.613c.458-1.206.705-2.5.705-3.831c0-.752-.076-1.49-.227-2.211.358-.693.769-.694.986-.694.841,0,1.553,1.007,1.553,2.198c0,2.557-1.836,4.017-3.017,4.538Z" fill="#f3b064"/></g></g></g><clipPath id="esc06K4b2jp30"><rect width="100" height="100" rx="0" ry="0"/></clipPath></g></svg>
