<svg xmlns="http://www.w3.org/2000/svg" width="13" height="15" viewBox="0 0 13 15" fill="none" class="injected-svg" data-src="/static/media/download.cce4b90d05537a57af3ff09e15cc65ee.svg" xmlns:xlink="http://www.w3.org/1999/xlink">
<path d="M2.89648 14.249H10.375C11.1042 14.249 11.6602 14.0576 12.043 13.6748C12.4303 13.2965 12.624 12.7451 12.624 12.0205V5.7793C12.624 5.05469 12.4303 4.50098 12.043 4.11816C11.6602 3.73535 11.1042 3.54395 10.375 3.54395H8.69336V5.12305H10.2178C10.4867 5.12305 10.6917 5.19141 10.833 5.32812C10.9743 5.46029 11.0449 5.66992 11.0449 5.95703V11.8359C11.0449 12.1185 10.9743 12.3281 10.833 12.4648C10.6917 12.6016 10.4867 12.6699 10.2178 12.6699H3.05371C2.78483 12.6699 2.57975 12.6016 2.43848 12.4648C2.2972 12.3281 2.22656 12.1185 2.22656 11.8359V5.95703C2.22656 5.66992 2.2972 5.46029 2.43848 5.32812C2.57975 5.19141 2.78483 5.12305 3.05371 5.12305H4.60547V3.54395H2.89648C2.16732 3.54395 1.60905 3.73535 1.22168 4.11816C0.838867 4.49642 0.647461 5.05013 0.647461 5.7793V12.0205C0.647461 12.7451 0.838867 13.2965 1.22168 13.6748C1.60905 14.0576 2.16732 14.249 2.89648 14.249ZM6.63574 10.1475C6.73145 10.1475 6.82487 10.1292 6.91602 10.0928C7.00716 10.0518 7.10059 9.98568 7.19629 9.89453L9.34277 7.83008C9.47038 7.69792 9.53418 7.5498 9.53418 7.38574C9.53418 7.20801 9.47266 7.06445 9.34961 6.95508C9.22656 6.8457 9.08073 6.79102 8.91211 6.79102C8.72982 6.79102 8.57487 6.85938 8.44727 6.99609L7.64062 7.85742L7.25781 8.34961L7.34668 7.39941V0.84375C7.34668 0.656901 7.27832 0.492839 7.1416 0.351562C7.00488 0.210286 6.83626 0.139648 6.63574 0.139648C6.43522 0.139648 6.26432 0.210286 6.12305 0.351562C5.98633 0.492839 5.91797 0.656901 5.91797 0.84375V7.39941L6.01367 8.35645L5.63086 7.85742L4.81738 6.99609C4.69434 6.85938 4.53711 6.79102 4.3457 6.79102C4.18164 6.79102 4.03809 6.8457 3.91504 6.95508C3.79199 7.06445 3.73047 7.20801 3.73047 7.38574C3.73047 7.5498 3.79427 7.69792 3.92188 7.83008L6.0752 9.89453C6.16634 9.98568 6.25749 10.0518 6.34863 10.0928C6.44434 10.1292 6.54004 10.1475 6.63574 10.1475Z" fill="black"></path>
</svg>