<svg xmlns:xlink="http://www.w3.org/1999/xlink" xmlns="http://www.w3.org/2000/svg" width="20.5" height="13.375" viewBox="0 0 20.5 13.375">
  <g id="Raggruppa_15" data-name="Raggruppa 15" transform="translate(-1.75 -5.25)">
    <path id="Tracciato_10" data-name="Tracciato 10" d="M12,18.625c4.7,0,10.25-3.805,10.25-6.687S16.7,5.25,12,5.25,1.75,9.055,1.75,11.938,7.3,18.625,12,18.625Zm0-1.5c-3.964,0-8.75-3.28-8.75-5.187S8.036,6.75,12,6.75s8.75,3.28,8.75,5.188S15.964,17.125,12,17.125Z" fill="#fff"/>
    <path id="Tracciato_11" data-name="Tracciato 11" d="M12,16.25a4.313,4.313,0,1,0-4.312-4.312A4.312,4.312,0,0,0,12,16.25Zm0-1.5a2.813,2.813,0,1,1,2.813-2.812A2.813,2.813,0,0,1,12,14.75Z" fill="#fff"/>
  </g>
</svg>