<svg xmlns:xlink="http://www.w3.org/1999/xlink" xmlns="http://www.w3.org/2000/svg" width="15" height="16" viewBox="0 0 15 16" fill="none">
<path d="M13.4992 0H1.50075C0.675338 0 0 0.675338 0 1.50075V15.0075L2.994 12.006H13.4992C14.3247 12.006 15 11.3307 15 10.5053V1.50075C15 0.675338 14.3247 0 13.4992 0ZM8.24662 9.0045H6.74587V7.50375H8.24662V9.0045ZM8.24662 5.25263C8.24662 5.66533 7.90895 6.003 7.49625 6.003C7.08354 6.003 6.74587 5.66533 6.74587 5.25263V3.75188C6.74587 3.33917 7.08354 3.0015 7.49625 3.0015C7.90895 3.0015 8.24662 3.33917 8.24662 3.75188V5.25263Z" fill="white"/>
</svg>