<svg id="ewh1lg7mfjy1" xmlns="http://www.w3.org/2000/svg" xmlns:xlink="http://www.w3.org/1999/xlink" viewBox="0 0 100 100" shape-rendering="geometricPrecision" text-rendering="geometricPrecision"><g transform="matrix(4.05247 0 0 4.70864-135.807597-206.942125)" clip-path="url(#ewh1lg7mfjy7)"><g><g transform="translate(33.13 43.263)"><g transform="translate(12.724 11.087)"><path d="M11.827,-0.451c0,0-6.072-3.344-6.072-3.344-.474-.261-1.07-.087-1.331.387-.172.312-.155.676.011.963-.556.494-.999,1.113-1.292,1.821-.193.465-.312.948-.359,1.436c0,0-7.557-9.266-7.557-9.266-.762-1.626-2.683-2.383-4.36-1.689-.835.346-1.486.998-1.832,1.834-.346.835-.346,1.755,0,2.591.146.352.146.739,0,1.091s-.42.625-.771.771c-.5.207-.738.78-.531,1.28.157.378.521.607.906.607.125,0,.252-.025.374-.076.836-.346,1.487-.996,1.833-1.832.346-.835.346-1.755,0-2.591-.146-.352-.146-.739,0-1.091s.42-.626.771-.772c.727-.301,1.563.045,1.863.772c0,0,6.138,14.817,6.138,14.817.034.08.069.159.106.237.011.025.024.051.036.076.025.053.052.106.08.159.014.027.028.054.043.082.03.055.061.11.092.163.016.028.032.055.049.082.036.061.074.119.113.178.021.033.043.064.065.096.025.037.051.074.078.111.023.032.047.066.072.099.028.037.058.075.087.112.029.036.057.072.087.107.042.051.085.101.129.15.023.026.046.05.069.075.037.039.074.078.112.117.021.02.041.041.061.061.062.062.126.122.19.18.011.009.021.017.031.026.062.055.124.11.188.162.002.002.004.003.007.005.724.59,1.586,1,2.52,1.186.007.001.015.003.022.004.083.017.166.031.25.044.049.007.099.014.149.02.026.004.052.006.078.009.064.007.127.013.192.018.006,0,.013.001.02.001.141.011.283.019.425.019.564,0,1.129-.085,1.678-.252.046-.014.092-.029.138-.045.044-.014.088-.028.132-.043.09-.033.18-.067.268-.104.922-.382,1.694-.977,2.281-1.704.059-.072.116-.146.171-.221.027-.038.054-.075.081-.113.106-.153.205-.312.295-.473.478-.85.74-1.815.748-2.802c0-.047,0-.094-.001-.141-.012-.707-.154-1.423-.44-2.114-.146-.352-.146-.739,0-1.091.09-.218.23-.406.407-.552c0,0,.155.084.155.084.149.082.312.121.471.121.346,0,.681-.182.86-.506.261-.474.088-1.071-.386-1.332Z" fill="#f3b064"/></g></g></g><clipPath id="ewh1lg7mfjy7"><rect width="100" height="100" rx="0" ry="0"/></clipPath></g></svg>
