<svg xmlns="http://www.w3.org/2000/svg" width="14.84" height="18" viewBox="0 0 19 22" fill="none" class="injected-svg" data-src="/icons/new/menu-notes.svg" xmlns:xlink="http://www.w3.org/1999/xlink">
<path d="M14.2217 0.507821C14.4119 0.507829 14.5956 0.576703 14.7389 0.701704C14.8823 0.826706 14.9755 0.99938 15.0013 1.18779L15.0087 1.29482V2.08078H15.7946C16.4208 2.08078 17.0213 2.32953 17.4641 2.7723C17.9069 3.21508 18.1556 3.81561 18.1556 4.44179V15.1985H14.2164L14.0548 15.2038C13.4871 15.2428 12.9526 15.4856 12.5496 15.8874C12.1467 16.2892 11.9024 16.823 11.8617 17.3906L11.8554 17.5596V21.4998H3.20783C2.58166 21.4998 1.98112 21.2511 1.53835 20.8083C1.09557 20.3655 0.846825 19.765 0.846825 19.1388L0.844727 4.44284C0.844727 3.81666 1.09348 3.21613 1.53625 2.77335C1.97903 2.33058 2.57956 2.08183 3.20574 2.08183L3.98959 2.08078L3.99064 1.29482C3.9907 1.09543 4.06645 0.903484 4.20258 0.757782C4.33871 0.612081 4.52507 0.523484 4.724 0.509893C4.92294 0.496302 5.11961 0.55873 5.27429 0.684564C5.42897 0.810398 5.53012 0.990254 5.5573 1.18779L5.56465 1.29482V2.08078H8.71266V1.29482C8.71062 1.09401 8.78542 0.900004 8.92176 0.752544C9.0581 0.605085 9.24565 0.515325 9.44602 0.501646C9.64638 0.487967 9.84439 0.551402 9.9995 0.678964C10.1546 0.806525 10.2551 0.988559 10.2804 1.18779L10.2877 1.29482V2.08078H13.4326L13.4336 1.29482C13.4336 1.0861 13.5165 0.885921 13.6641 0.738329C13.8117 0.590737 14.0119 0.507821 14.2206 0.507821H14.2217ZM17.695 16.7726L13.4284 21.0381L13.4294 17.5596L13.4368 17.4525C13.4601 17.2824 13.5385 17.1245 13.66 17.0031C13.7814 16.8816 13.9392 16.8033 14.1094 16.7799L14.2164 16.7726H17.6939H17.695ZM8.97185 15.1985H4.77764L4.67061 15.2059C4.48224 15.2318 4.30963 15.325 4.18467 15.4684C4.05972 15.6117 3.99088 15.7954 3.99088 15.9855C3.99088 16.1757 4.05972 16.3594 4.18467 16.5027C4.30963 16.6461 4.48224 16.7393 4.67061 16.7652L4.77764 16.7726H8.9729L9.07993 16.7652C9.2683 16.7393 9.44091 16.6461 9.56586 16.5027C9.69082 16.3594 9.75966 16.1757 9.75966 15.9855C9.75966 15.7954 9.69082 15.6117 9.56586 15.4684C9.44091 15.325 9.2683 15.2318 9.07993 15.2059L8.9729 15.1985H8.97185ZM14.2185 11.0012H4.77764L4.67061 11.0085C4.48224 11.0345 4.30963 11.1277 4.18467 11.271C4.05972 11.4143 3.99088 11.5981 3.99088 11.7882C3.99088 11.9783 4.05972 12.1621 4.18467 12.3054C4.30963 12.4487 4.48224 12.5419 4.67061 12.5679L4.77764 12.5752H14.2196L14.3266 12.5679C14.515 12.5419 14.6876 12.4487 14.8126 12.3054C14.9375 12.1621 15.0063 11.9783 15.0063 11.7882C15.0063 11.5981 14.9375 11.4143 14.8126 11.271C14.6876 11.1277 14.515 11.0345 14.3266 11.0085L14.2196 11.0012H14.2185ZM14.2185 6.80385H4.77764L4.67061 6.81119C4.48224 6.83711 4.30963 6.93035 4.18467 7.07367C4.05972 7.21699 3.99088 7.40071 3.99088 7.59085C3.99088 7.78099 4.05972 7.96471 4.18467 8.10803C4.30963 8.25135 4.48224 8.34459 4.67061 8.37051L4.77764 8.37785H14.2196L14.3266 8.37051C14.515 8.34459 14.6876 8.25135 14.8126 8.10803C14.9375 7.96471 15.0063 7.78099 15.0063 7.59085C15.0063 7.40071 14.9375 7.21699 14.8126 7.07367C14.6876 6.93035 14.515 6.83711 14.3266 6.81119L14.2196 6.80385H14.2185Z" fill="#363636"></path>
</svg>