<svg xmlns:xlink="http://www.w3.org/1999/xlink" xmlns="http://www.w3.org/2000/svg" width="15" height="15" viewBox="0 0 15 15" fill="none">
<path d="M7.5 0C3.36176 0 0 2.8575 0 6.375C0 9.8925 3.36176 12.75 7.5 12.75H7.94118V15C12.2294 13.245 15 9.75 15 6.375C15 2.8575 11.6382 0 7.5 0ZM8.38235 10.875H6.61765V9.375H8.38235V10.875ZM8.38235 8.25H6.61765C6.61765 5.8125 9.26471 6 9.26471 4.5C9.26471 3.675 8.47059 3 7.5 3C6.52941 3 5.73529 3.675 5.73529 4.5H3.97059C3.97059 2.8425 5.55 1.5 7.5 1.5C9.45 1.5 11.0294 2.8425 11.0294 4.5C11.0294 6.375 8.38235 6.5625 8.38235 8.25Z" fill="white"/>
</svg>