<svg xmlns:xlink="http://www.w3.org/1999/xlink" xmlns="http://www.w3.org/2000/svg" width="20.5" height="15.38" viewBox="0 0 20.5 15.38">
  <g id="Raggruppa_16" data-name="Raggruppa 16" transform="translate(-1.75 -4.31)">
    <path id="Tracciato_5" data-name="Tracciato 5" d="M20.75,11.938c0,1.453-4.16,5.187-8.75,5.187a9.2,9.2,0,0,1-1.911-.213L8.863,18.136A11.122,11.122,0,0,0,12,18.625c4.949,0,10.25-3.925,10.25-6.687,0-1.315-1.209-2.891-3-4.185l-1.09,1.091c1.577,1.1,2.593,2.377,2.593,3.094" fill="#fff" fill-rule="evenodd"/>
    <path id="Tracciato_6" data-name="Tracciato 6" d="M3.25,11.938c0-1.453,4.16-5.187,8.75-5.187a9.212,9.212,0,0,1,1.983.23l1.223-1.222A11.178,11.178,0,0,0,12,5.251c-4.949,0-10.25,3.925-10.25,6.687,0,1.328,1.232,2.922,3.055,4.222l1.09-1.09C4.287,13.957,3.25,12.663,3.25,11.938" fill="#fff" fill-rule="evenodd"/>
    <path id="Tracciato_7" data-name="Tracciato 7" d="M11.821,9.143,13.16,7.8A4.24,4.24,0,0,0,12,7.625a4.318,4.318,0,0,0-4.313,4.312A4.248,4.248,0,0,0,7.866,13.1l1.339-1.339a2.8,2.8,0,0,1,2.616-2.616" fill="#fff" fill-rule="evenodd"/>
    <path id="Tracciato_8" data-name="Tracciato 8" d="M12.278,14.722l-1.371,1.371a4.256,4.256,0,0,0,5.247-5.248l-1.37,1.371a2.8,2.8,0,0,1-2.506,2.506" fill="#fff" fill-rule="evenodd"/>
    <path id="Tracciato_9" data-name="Tracciato 9" d="M11.875,2a.875.875,0,0,1,.875.875v18.25a.875.875,0,0,1-1.75,0V2.875A.875.875,0,0,1,11.875,2Zm0,1.5a.625.625,0,0,0,.625-.625v18.25a.625.625,0,0,0-1.25,0V2.875A.625.625,0,0,0,11.875,3.5Z" transform="translate(11.963 -4.882) rotate(45)" fill="#fff"/>
  </g>
</svg>