<svg id="es8TwZLc19J1" xmlns="http://www.w3.org/2000/svg" xmlns:xlink="http://www.w3.org/1999/xlink" viewBox="0 0 100 100" shape-rendering="geometricPrecision" text-rendering="geometricPrecision"><g transform="matrix(3.842484 0 0 3.780908-135.679968-147.124402)" clip-path="url(#es8TwZLc19J12)"><g transform="matrix(1.239264 0 0 1.259452-10.830749-14.494733)"><g transform="translate(36.878 41.934)"><g transform="translate(10.803 10.957)"><path d="M10.552,0.01c.001,2.178-.675,4.302-1.935,6.078C7.357,7.865,5.576,9.205,3.52,9.925c-2.055.719-4.284.782-6.376.178-2.093-.603-3.946-1.842-5.303-3.545-1.358-1.703-2.152-3.786-2.273-5.961-.121-2.174.437-4.332,1.597-6.175c1.16-1.844,2.865-3.28,4.877-4.112c2.013-.832,4.235-1.017,6.358-.53.141.032.27.104.371.208s.17.235.198.377c.027.141.013.286-.04.419s-.143.248-.259.331c-.532.38-.975.871-1.297,1.439-.323.569-.518,1.2-.572,1.852-.054.651.035,1.306.26,1.92.225.613.58,1.17,1.042,1.632.463.463,1.02.818,1.633,1.043.614.225,1.269.314,1.92.26.652-.054,1.283-.249,1.852-.571.568-.323,1.059-.766,1.439-1.298.083-.116.198-.206.331-.259s.278-.067.419-.041c.142.029.273.098.377.199s.176.23.208.371c.178.77.269,1.558.27,2.348Z" fill="#f3b064"/></g></g><g transform="translate(46.25 56.438)"><g><g transform="matrix(.11 0 0 0.11 0 0)"><g><path d="M46.599998,0c0,0,0-12,0-12s-26.999998,0-26.999998,0s26.4-22.200001,26.4-22.200001s0-14.399997,0-14.399997-42,0-42,0s0,12,0,12s24.6,0,24.6,0-25.2,21.599998-25.2,21.599998s0,15,0,15s43.199998,0,43.199998,0Z" fill="#f4b065" stroke-linejoin="round"/></g></g></g></g></g><clipPath id="es8TwZLc19J12"><rect width="100" height="100" rx="0" ry="0"/></clipPath></g></svg>
