<svg xmlns:xlink="http://www.w3.org/1999/xlink" xmlns="http://www.w3.org/2000/svg" width="14" height="14" viewBox="0 0 14 14" fill="none">
<path d="M8.05 2.8C7.49 2.8 7 3.29 7 3.85C7 4.41 7.49 4.9 8.05 4.9C8.61 4.9 9.1 4.41 9.1 3.85C9.1 3.29 8.61 2.8 8.05 2.8ZM11.9 0H2.1C0.91 0 0 0.91 0 2.1V11.9C0 13.09 0.91 14 2.1 14H11.9C13.09 14 14 13.09 14 11.9V2.1C14 0.91 13.09 0 11.9 0ZM12.6 8.33L11.27 7C10.43 6.23 9.1 6.23 8.33 7L7.7 7.63L5.67 5.6C4.83 4.83 3.5 4.83 2.73 5.6L1.4 6.93V2.1C1.4 1.68 1.68 1.4 2.1 1.4H11.9C12.32 1.4 12.6 1.68 12.6 2.1V8.33Z" fill="white"/>
</svg>