<svg xmlns:xlink="http://www.w3.org/1999/xlink" xmlns="http://www.w3.org/2000/svg" width="14" height="14" viewBox="0 0 14 14" fill="none">
<path d="M13.44 0H0.56C0.25025 0 0 0.25025 0 0.56V13.44C0 13.7498 0.25025 14 0.56 14H13.44C13.7498 14 14 13.7498 14 13.44V0.56C14 0.25025 13.7498 0 13.44 0ZM10.745 8.28975C10.745 9.2575 9.96275 10.0415 9.00025 10.0415H5.4005V10.976C5.4005 11.0758 5.28675 11.13 5.20975 11.0687L3.3005 9.569C3.23925 9.52175 3.23925 9.429 3.3005 9.38175L5.20975 7.882C5.28675 7.82075 5.4005 7.87675 5.4005 7.97475V8.90925H9.00025C9.34325 8.90925 9.6215 8.62925 9.6215 8.28625V6.9055C9.6215 6.84075 9.674 6.7865 9.7405 6.7865H10.6277C10.6925 6.7865 10.7467 6.839 10.7467 6.9055V8.28975H10.745ZM10.6995 4.6165L8.79025 6.11625C8.71325 6.1775 8.5995 6.1215 8.5995 6.0235V5.089H4.99975C4.65675 5.089 4.3785 5.369 4.3785 5.712V7.09275C4.3785 7.1575 4.326 7.21175 4.2595 7.21175H3.37225C3.3075 7.21175 3.25325 7.15925 3.25325 7.09275V5.712C3.25325 4.74425 4.0355 3.96025 4.998 3.96025H8.59775V3.02575C8.59775 2.926 8.7115 2.87175 8.7885 2.933L10.6978 4.43275C10.7607 4.4765 10.7608 4.56925 10.6995 4.6165Z" fill="white"/>
</svg>