<svg xmlns:xlink="http://www.w3.org/1999/xlink" xmlns="http://www.w3.org/2000/svg" width="15" height="15" viewBox="0 0 15 15" fill="none">
    <path d="M14.3341 0.285042C14.2905 0.176537 14.2068 0.0890068 14.1003 0.0406594C13.9939 -0.00768806 13.8729 -0.0131299 13.7625 0.0254659C13.6521 0.0640617 13.5609 0.143724 13.5077 0.247879C13.4546 0.352034 13.4437 0.472664 13.4772 0.584673C14.1749 2.58973 12.7901 4.08713 11.7343 4.88915L11.3077 4.27788C11.1643 4.07286 10.8436 3.9024 10.5943 3.89939L8.20026 3.90991C7.9078 3.91874 7.62317 4.00644 7.37646 4.16373L0.321976 9.11028C0.157888 9.22575 0.0462394 9.40153 0.0114748 9.59914C-0.0232898 9.79675 0.0216626 10.0001 0.13649 10.1646L3.34232 14.7515C3.58263 15.0931 3.96637 15.0518 4.3088 14.813L11.3633 9.86574C11.566 9.72231 11.8003 9.41291 11.8829 9.17636L12.6324 6.81461C12.715 6.57881 12.6647 6.2191 12.5213 6.01409L12.2614 5.64161C13.6792 4.55498 15.1511 2.63478 14.3341 0.285042V0.285042ZM11.0516 7.31249C10.9217 7.40346 10.7751 7.46793 10.6202 7.50222C10.4653 7.53651 10.3052 7.53995 10.149 7.51233C9.99274 7.48471 9.84349 7.42659 9.70975 7.34127C9.57601 7.25596 9.46039 7.14513 9.3695 7.01511C9.18546 6.75202 9.11333 6.42665 9.16894 6.11043C9.22455 5.79421 9.40336 5.51298 9.66612 5.32846C9.87212 5.18414 10.1181 5.10779 10.3696 5.11008C10.6211 5.11237 10.8656 5.19318 11.0689 5.34123C10.8646 5.46439 10.7242 5.53648 10.6979 5.54774C10.6048 5.59213 10.5296 5.66682 10.4845 5.75957C10.4394 5.85232 10.4272 5.95763 10.4498 6.05826C10.4724 6.15888 10.5285 6.24884 10.6089 6.3134C10.6893 6.37796 10.7893 6.41329 10.8924 6.41359C10.957 6.41359 11.0231 6.39858 11.0854 6.36929C11.2311 6.3002 11.3873 6.21835 11.5503 6.12147C11.5878 6.34681 11.5608 6.57814 11.4726 6.78885C11.3844 6.99956 11.2385 7.18107 11.0516 7.31249V7.31249Z" fill="white"/>
</svg>