<svg xmlns="http://www.w3.org/2000/svg" width="15.65" height="18" viewBox="0 0 19 22" fill="none" class="injected-svg" data-src="/icons/new/menu-timer.svg" xmlns:xlink="http://www.w3.org/1999/xlink">
<path d="M6.53218 0.499817C6.35057 0.499817 6.17639 0.571963 6.04797 0.700385C5.91955 0.828807 5.8474 1.00298 5.8474 1.1846C5.8474 1.36622 5.91955 1.54039 6.04797 1.66881C6.17639 1.79724 6.35057 1.86938 6.53218 1.86938H12.467C12.6486 1.86938 12.8228 1.79724 12.9512 1.66881C13.0796 1.54039 13.1517 1.36622 13.1517 1.1846C13.1517 1.00298 13.0796 0.828807 12.9512 0.700385C12.8228 0.571963 12.6486 0.499817 12.467 0.499817H6.53218ZM0.369141 12.3694C0.369141 7.32664 4.45684 3.23895 9.49958 3.23895C14.5423 3.23895 18.63 7.32664 18.63 12.3694C18.63 17.4121 14.5423 21.4998 9.49958 21.4998C4.45684 21.4998 0.369141 17.4121 0.369141 12.3694ZM10.1844 7.11938C10.1844 6.93777 10.1122 6.76359 9.98379 6.63517C9.85537 6.50675 9.68119 6.4346 9.49958 6.4346C9.31796 6.4346 9.14378 6.50675 9.01536 6.63517C8.88694 6.76359 8.81479 6.93777 8.81479 7.11938V12.5976C8.81479 12.7793 8.88694 12.9534 9.01536 13.0819C9.14378 13.2103 9.31796 13.2824 9.49958 13.2824C9.68119 13.2824 9.85537 13.2103 9.98379 13.0819C10.1122 12.9534 10.1844 12.7793 10.1844 12.5976V7.11938ZM16.0917 3.43982C16.2201 3.31158 16.3942 3.23955 16.5757 3.23955C16.7571 3.23955 16.9312 3.31158 17.0596 3.43982L18.4291 4.80938C18.5501 4.93919 18.616 5.11089 18.6128 5.28829C18.6097 5.4657 18.5378 5.63496 18.4124 5.76043C18.2869 5.88589 18.1176 5.95776 17.9402 5.96089C17.7628 5.96402 17.5911 5.89817 17.4613 5.77721L16.0917 4.40764C15.9635 4.27925 15.8915 4.1052 15.8915 3.92373C15.8915 3.74226 15.9635 3.56821 16.0917 3.43982Z" fill="#363636"></path>
</svg>