<svg xmlns:xlink="http://www.w3.org/1999/xlink" xmlns="http://www.w3.org/2000/svg" width="46" height="36" viewBox="0 0 46 36" fill="none">
    <path d="M45.7416 4.36453C44.0655 5.08453 42.2605 5.56453 40.3726 5.78676C42.3065 4.66676 43.78 2.89787 44.4799 0.80009C42.6749 1.82231 40.6765 2.57787 38.5492 2.97787C36.8455 1.22676 34.4142 0.133423 31.7251 0.133423C26.5588 0.133423 22.3778 4.16898 22.3778 9.15565C22.3778 9.86676 22.4607 10.5512 22.6172 11.209C14.8539 10.8356 7.96538 7.24453 3.35156 1.78676C2.55036 3.12009 2.0899 4.66676 2.0899 6.32009C2.0899 9.44898 3.73835 12.2134 6.24326 13.8312C4.71453 13.7868 3.26868 13.3779 2.00702 12.7023C2.00702 12.7379 2.00702 12.7734 2.00702 12.8179C2.00702 17.1912 5.23024 20.8356 9.50331 21.6623C8.72053 21.8668 7.8917 21.9823 7.04446 21.9823C6.44586 21.9823 5.85647 21.929 5.2855 21.8223C6.47348 25.4045 9.92694 28.0179 14.0158 28.089C10.8202 30.5068 6.7866 31.9468 2.41222 31.9468C1.65707 31.9468 0.911121 31.9023 0.183594 31.8223C4.31853 34.3823 9.23625 35.8756 14.5131 35.8756C31.7067 35.8756 41.1093 22.1334 41.1093 10.2045C41.1093 9.81342 41.1001 9.42231 41.0817 9.04009C42.9051 7.76009 44.4891 6.16898 45.7416 4.36453Z" fill="#5FA9DD"/>
</svg>