<svg id="elUZFdr2KsH1" xmlns="http://www.w3.org/2000/svg" xmlns:xlink="http://www.w3.org/1999/xlink" viewBox="0 0 32 34" shape-rendering="geometricPrecision" text-rendering="geometricPrecision">
  <g transform="translate(0 2.112697)">
    <path d="M14.2516,3.14806c.7619-1.3719,2.7349-1.3719,3.4968,0l.8022,1.44428c.4515.81301,1.4039,1.2075,2.2981.9519c0,0,1.111951-.317832,1.5885-.45405c1.508803-.43128,2.9039.9638,2.4726,2.47266l-.454,1.58846c-.2556.89419.1388,1.84659.9519,2.29809l1.4442.8022c1.3719.7619,1.3719,2.7349,0,3.4968l-1.4442.8022c-.8131.4515-1.2075,1.4039-.9519,2.2981l.454,1.5885c.4313,1.5088-.9638,2.9039-2.4726,2.4726l-1.5885-.454c-.8942-.2556-1.8466.1388-2.2981.9519l-.8022,1.4442c-.7619,1.3719-2.7349,1.3719-3.4968,0l-.8022-1.4442c-.4515-.8131-1.4039-1.2075-2.2981-.9519l-1.58845.454c-1.50886.4313-2.90396-.9638-2.47266-2.4726l.45405-1.5885c.2556-.8942-.13889-1.8466-.9519-2.2981l-1.44428-.8022c-1.3719-.7619-1.3719-2.7349,0-3.4968l1.44428-.8022c.81301-.4515,1.2075-1.4039.9519-2.29809L7.09019,7.56285c-.43129-1.50886.9638-2.90395,2.47266-2.47266l1.58845.45405c.8942.2556,1.8466-.13889,2.2981-.9519l.8022-1.44428Z" fill="#f3a952"/>
    <path d="M 6.706294059753418 5.565773963928223 C 6.049056053161621 5.565773963928223 5.4065728187561035 5.402557849884033 4.8600993156433105 5.096772193908691 C 4.313616752624512 4.79098653793335 3.887691020965576 4.356359004974365 3.636176347732544 3.847852945327759 C 3.3846614360809326 3.339346170425415 3.3188607692718506 2.779801368713379 3.447082042694092 2.2399754524230957 C 3.575303077697754 1.70014226436615 3.891787052154541 1.2042845487594604 4.356532573699951 0.8150860071182251 C 4.821269989013672 0.42589569091796875 5.413386821746826 0.16085213422775269 6.057998180389404 0.05347365513443947 C 6.702609539031982 -0.05390460416674614 7.370767593383789 0.0012058058055117726 7.977980136871338 0.2118360996246338 C 8.585192680358887 0.4224657118320465 9.104167938232422 0.77915358543396 9.469301223754883 1.2368019819259644 C 9.834432601928711 1.6944429874420166 10.02938461303711 2.2324864864349365 10.02938461303711 2.7828869819641113 C 10.02938461303711 3.5209555625915527 9.679276466369629 4.228790760040283 9.056056022644043 4.750680446624756 C 8.432862281799316 5.272577285766602 7.587629318237305 5.565773963928223 6.706294059753418 5.565773963928223 L 6.706294059753418 5.565773963928223 Z M 6.706294059753418 0.9276314973831177 C 6.268135070800781 0.9276314973831177 5.839813232421875 1.0364398956298828 5.475494384765625 1.2402994632720947 C 5.111175537109375 1.444151520729065 4.827225685119629 1.7339028120040894 4.659549236297607 2.0729098320007324 C 4.491872787475586 2.411916971206665 4.447999000549316 2.7849464416503906 4.533482551574707 3.1448254585266113 C 4.618967056274414 3.504711866378784 4.829961776733398 3.8352861404418945 5.13978385925293 4.094751834869385 C 5.449614524841309 4.354209899902344 5.844356060028076 4.5309062004089355 6.274100303649902 4.602494239807129 C 6.7038350105285645 4.6740827560424805 7.149273872375488 4.637341022491455 7.554084777832031 4.496921539306641 C 7.958887577056885 4.356501579284668 8.304883003234863 4.118709087371826 8.548314094543457 3.813612699508667 C 8.791744232177734 3.508516550064087 8.921673774719238 3.1498208045959473 8.921673774719238 2.7828869819641113 C 8.921673774719238 2.2908411026000977 8.688267707824707 1.8189483880996704 8.272805213928223 1.4710222482681274 C 7.8573431968688965 1.1230958700180054 7.293851375579834 0.9276314973831177 6.706294059753418 0.9276314973831177 Z " fill="#000000" transform="matrix(1 0 0 1 9.38256 6.86399)" fill-opacity="1" data-css-class="" class=""/>
    <path d="M 6.7070631980896 12.059171676635742 C 5.478874683380127 12.058497428894043 4.266157627105713 11.829782485961914 3.156201124191284 11.389501571655273 C 2.0462446212768555 10.94914436340332 1.066664457321167 10.308231353759766 0.2879994511604309 9.512819290161133 L -7.700704429680627e-8 9.21602725982666 L 0.2879994511604309 8.923805236816406 C 1.067326307296753 8.129441261291504 2.0471837520599365 7.48957633972168 3.157104253768921 7.050268173217773 C 4.267024517059326 6.610961437225342 5.4794206619262695 6.383106708526611 6.7070631980896 6.383106708526611 C 7.934706211090088 6.383106708526611 9.147092819213867 6.610961437225342 10.256978034973145 7.050268173217773 C 11.366952896118164 7.48957633972168 12.346809387207031 8.129441261291504 13.126171112060547 8.923805236816406 L 13.4141263961792 9.21602725982666 L 13.126171112060547 9.512819290161133 C 12.34743595123291 10.308231353759766 11.367846488952637 10.94914436340332 10.25796127319336 11.389501571655273 C 9.147987365722656 11.829782485961914 7.935243129730225 12.058497428894043 6.7070631980896 12.059171676635742 L 6.7070631980896 12.059171676635742 Z M 1.4510775804519653 9.220670700073242 C 2.1246814727783203 9.82451343536377 2.9393301010131836 10.306059837341309 3.8444440364837646 10.63520336151123 C 4.749557971954346 10.964422225952148 5.725811004638672 11.13427448272705 6.71259880065918 11.13427448272705 C 7.6993865966796875 11.13427448272705 8.67564868927002 10.964422225952148 9.580727577209473 10.63520336151123 C 10.485913276672363 10.306059837341309 11.300507545471191 9.82451343536377 11.974164962768555 9.220670700073242 C 11.300507545471191 8.616753578186035 10.485913276672363 8.135282516479492 9.580727577209473 7.806063652038574 C 8.67564868927002 7.47686767578125 7.6993865966796875 7.307001113891602 6.71259880065918 7.307001113891602 C 5.725811004638672 7.307001113891602 4.749557971954346 7.47686767578125 3.8444440364837646 7.806063652038574 C 2.9393301010131836 8.135282516479492 2.1246814727783203 8.616753578186035 1.4510775804519653 9.220670700073242 L 1.4510775804519653 9.220670700073242 Z " fill="#000000" transform="matrix(1 0 0 1 9.38256 6.86399)" fill-opacity="1" data-css-class="" class=""/>
    <path d="M 0.713499128818512 9.220520973205566 C 0.713499128818512 9.220520973205566 6.29071569442749 14.438443183898926 11.967637062072754 9.740036964416504 L 12.69870662689209 9.220520973205566 C 12.69870662689209 9.220520973205566 7.957796096801758 5.101879596710205 3.1448795795440674 7.573978424072266 L 0.713499128818512 9.220520973205566 Z " fill="#000000" transform="matrix(1 0 0 1 9.38256 6.86399)" fill-opacity="1" data-css-class="" class=""/>
    <path d="M 6.7061333656311035 5.1020965576171875 C 8.2355318069458 5.1020965576171875 9.475380897521973 4.063807010650635 9.475380897521973 2.783021926879883 C 9.475380897521973 1.5022366046905518 8.2355318069458 0.46395209431648254 6.7061333656311035 0.46395209431648254 C 5.1767354011535645 0.46395209431648254 3.9369029998779297 1.5022366046905518 3.9369029998779297 2.783021926879883 C 3.9369029998779297 4.063807010650635 5.1767354011535645 5.1020965576171875 6.7061333656311035 5.1020965576171875 Z " fill="#000000" transform="matrix(1 0 0 1 9.38256 6.86399)" fill-opacity="1" data-css-class="" class=""/>
  </g>
</svg>
