<svg id="e0sAbNRSO261" xmlns="http://www.w3.org/2000/svg" xmlns:xlink="http://www.w3.org/1999/xlink" viewBox="0 -6 21 21" shape-rendering="geometricPrecision" text-rendering="geometricPrecision"><g transform="translate(0-2.999992)"><path d="M6.66233,1.66753c-.13273.14653-.31371.229-.50255.229h-.6728c-.84724,0-1.68846.15532-2.48852.45947-1.52847.58107-2.640776,2.03112-2.895599,3.77485l-.00685.04687c-.128015.87599-.128014,1.76857,0,2.64456l.00685.04687C0.357684,10.6129,1.46999,12.0629,2.99846,12.644c.80006.3041,1.64128.4595,2.48852.4595h.6728c.18884,0,.36982.0824.50255.229l.4937.545c1.90227,2.1002,5.17917,1.1068,5.81537-1.7629.6723-3.0327.6723-6.1965,0-9.22917-.6362-2.86974-3.9131-3.863145-5.81537-1.76297Z" fill="#f3a952"/><path d="M17.4036,1.03465c.287-.37512.7985-.425368,1.1423-.112233C20.0666,2.30723,21,4.78557,21,7.50002s-.9334,5.19278-2.4541,6.57758c-.3438.3131-.8553.2629-1.1423-.1122-.2871-.3751-.241-.9331.1029-1.2462c1.0651-.9699,1.8714-2.89278,1.8714-5.21918s-.8063-4.24925-1.8714-5.21918c-.3439-.31313-.39-.87107-.1029-1.24619Z" fill="#f3a952"/><path d="M16.3138,4.40489c-.3725-.27137-.8761-.16194-1.1248.24441s-.1485.95577.224,1.22714c.4022.293.7208.88524.7208,1.62357s-.3186,1.33058-.7208,1.62358c-.3725.27137-.4728.82078-.224,1.22711s.7523.5158,1.1248.2444c.8908-.64885,1.442-1.81708,1.442-3.09509s-.5512-2.44623-1.442-3.09512Z" fill="#f3a952"/></g></svg>
