<svg id="eW354j8zIFd1" xmlns="http://www.w3.org/2000/svg" xmlns:xlink="http://www.w3.org/1999/xlink" viewBox="0 -6 21 21" shape-rendering="geometricPrecision" text-rendering="geometricPrecision"><g transform="translate(3.762187-2.999992)"><path d="M6.66233,1.66753c-.13273.14653-.31371.229-.50255.229h-.6728c-.84724,0-1.68846.15532-2.48852.45947-1.52847.58107-2.640776,2.03112-2.895599,3.77485l-.00685.04687c-.128015.87599-.128014,1.76857,0,2.64456l.00685.04687C0.357684,10.6129,1.46999,12.0629,2.99846,12.644c.80006.3041,1.64128.4595,2.48852.4595h.6728c.18884,0,.36982.0824.50255.229l.4937.545c1.90227,2.1002,5.17917,1.1068,5.81537-1.7629.6723-3.0327.6723-6.1965,0-9.22917-.6362-2.86974-3.9131-3.863145-5.81537-1.76297Z" fill="#f3a952"/></g></svg>
